<?xml version="1.0" encoding="UTF-8" standalone="no"?>
<!-- Created with Inkscape (http://www.inkscape.org/) -->

<svg
   width="40.940788mm"
   height="21.251545mm"
   viewBox="0 0 40.940788 21.251545"
   version="1.1"
   id="svg211"
   inkscape:version="1.1 (c68e22c387, 2021-05-23)"
   sodipodi:docname="protectbits.svg"
   xmlns:inkscape="http://www.inkscape.org/namespaces/inkscape"
   xmlns:sodipodi="http://sodipodi.sourceforge.net/DTD/sodipodi-0.dtd"
   xmlns="http://www.w3.org/2000/svg"
   xmlns:svg="http://www.w3.org/2000/svg">
  <sodipodi:namedview
     id="namedview213"
     pagecolor="#ffffff"
     bordercolor="#666666"
     borderopacity="1.0"
     inkscape:pageshadow="2"
     inkscape:pageopacity="0.0"
     inkscape:pagecheckerboard="0"
     inkscape:document-units="mm"
     showgrid="false"
     inkscape:zoom="0.72337262"
     inkscape:cx="-318.64629"
     inkscape:cy="73.959117"
     inkscape:window-width="1920"
     inkscape:window-height="1001"
     inkscape:window-x="-9"
     inkscape:window-y="-9"
     inkscape:window-maximized="1"
     inkscape:current-layer="g19"
     fit-margin-top="0"
     fit-margin-left="0"
     fit-margin-right="0"
     fit-margin-bottom="0" />
  <defs
     id="defs208">
    <clipPath
       clipPathUnits="userSpaceOnUse"
       id="clipPath25">
      <path
         d="M 0,144 H 252 V 0 H 0 Z"
         id="path23" />
    </clipPath>
  </defs>
  <g
     inkscape:label="Layer 1"
     inkscape:groupmode="layer"
     id="layer1"
     transform="translate(-73.530839,-129.0959)">
    <g
       id="g19"
       transform="matrix(0.35277777,0,0,-0.35277777,66.822746,172.84246)">
      <g
         id="g1296">
        <g
           id="g27"
           transform="translate(61.4668,94.186)"
           style="fill:#2151a8;fill-opacity:1">
          <path
             d="m 0,0 c 0,-3.942 -3.196,-7.139 -7.138,-7.139 -3.942,0 -7.137,3.197 -7.137,7.139 0,3.943 3.195,7.139 7.137,7.139 C -3.196,7.139 0,3.943 0,0"
             style="fill:#2151a8;fill-opacity:1;fill-rule:nonzero;stroke:none"
             id="path29" />
        </g>
        <g
           id="g31"
           transform="translate(19.0195,85.687)"
           style="fill:#2151a8;fill-opacity:1">
          <path
             d="M 0,0 C 3.005,20.285 17.278,38.319 35.31,38.319 53.34,38.319 67.614,20.285 70.619,0 70.77,-0.752 67.013,-0.752 66.862,0 63.106,14.275 53.34,27.799 35.31,27.799 17.278,27.799 7.512,14.275 3.756,0 3.606,-0.752 -0.151,-0.752 0,0"
             style="fill:#2151a8;fill-opacity:1;fill-rule:nonzero;stroke:none"
             id="path33" />
        </g>
        <g
           id="g35"
           transform="translate(24.4531,73.0415)"
           style="fill:#2151a8;fill-opacity:1">
          <path
             d="M 0,0 C 0.753,0 1.428,0.047 2.024,0.141 2.621,0.235 3.126,0.412 3.542,0.671 3.958,0.929 4.28,1.282 4.507,1.729 4.735,2.177 4.849,2.761 4.849,3.482 4.849,4.55 4.499,5.358 3.801,5.908 3.103,6.457 1.992,6.731 0.471,6.731 H -3.672 V 0 Z M -5.272,-8.851 V 8.097 h 6.19 C 2.016,8.097 2.922,7.971 3.636,7.72 4.351,7.469 4.916,7.124 5.331,6.685 5.747,6.245 6.037,5.739 6.202,5.166 6.367,4.593 6.449,3.993 6.449,3.365 6.449,2.424 6.257,1.648 5.873,1.036 5.488,0.423 4.99,-0.06 4.378,-0.412 3.766,-0.765 3.071,-1.012 2.294,-1.155 1.518,-1.293 0.737,-1.365 -0.047,-1.365 h -3.625 v -7.486 z"
             style="fill:#2151a8;fill-opacity:1;fill-rule:nonzero;stroke:none"
             id="path37" />
        </g>
        <g
           id="g39"
           transform="translate(34.9033,64.1904)"
           style="fill:#2151a8;fill-opacity:1">
          <path
             d="M 0,0 H -1.412 V 12.194 H 0 V 9.91 h 0.047 c 0.392,0.973 0.898,1.652 1.518,2.036 0.62,0.384 1.439,0.577 2.46,0.577 v -1.53 C 3.225,11.009 2.565,10.883 2.048,10.617 1.53,10.35 1.118,9.988 0.812,9.533 0.506,9.079 0.294,8.541 0.176,7.921 0.059,7.302 0,6.654 0,5.979 Z"
             style="fill:#2151a8;fill-opacity:1;fill-rule:nonzero;stroke:none"
             id="path41" />
        </g>
        <g
           id="g43"
           transform="translate(49.8262,70.2881)"
           style="fill:#2151a8;fill-opacity:1">
          <path
             d="m 0,0 c 0,0.722 -0.079,1.396 -0.235,2.024 -0.158,0.627 -0.4,1.173 -0.73,1.636 -0.33,0.462 -0.753,0.827 -1.271,1.093 -0.518,0.268 -1.153,0.401 -1.907,0.401 -0.737,0 -1.369,-0.145 -1.895,-0.435 C -6.563,4.428 -6.991,4.044 -7.32,3.565 -7.65,3.086 -7.893,2.538 -8.049,1.918 -8.207,1.298 -8.285,0.658 -8.285,0 c 0,-0.754 0.09,-1.448 0.27,-2.083 0.181,-0.636 0.444,-1.182 0.789,-1.637 0.345,-0.455 0.777,-0.807 1.294,-1.059 0.518,-0.251 1.114,-0.377 1.789,-0.377 0.738,0 1.37,0.145 1.895,0.435 0.526,0.291 0.953,0.68 1.283,1.167 0.33,0.486 0.572,1.035 0.73,1.647 C -0.079,-1.296 0,-0.659 0,0 m -4.143,-6.427 c -0.784,0.016 -1.518,0.157 -2.2,0.425 -0.683,0.266 -1.28,0.665 -1.79,1.2 -0.509,0.532 -0.913,1.2 -1.212,2 -0.298,0.801 -0.447,1.734 -0.447,2.802 0,0.894 0.118,1.73 0.354,2.506 0.235,0.777 0.588,1.455 1.059,2.036 0.471,0.581 1.059,1.039 1.765,1.377 0.706,0.337 1.53,0.506 2.471,0.506 0.957,0 1.789,-0.169 2.496,-0.506 C -0.941,5.581 -0.353,5.127 0.118,4.554 0.589,3.981 0.938,3.302 1.165,2.518 1.392,1.733 1.506,0.894 1.506,0 c 0,-0.974 -0.133,-1.853 -0.4,-2.637 -0.267,-0.785 -0.648,-1.46 -1.141,-2.025 -0.495,-0.565 -1.091,-0.998 -1.789,-1.305 -0.699,-0.305 -1.471,-0.46 -2.319,-0.46"
             style="fill:#2151a8;fill-opacity:1;fill-rule:nonzero;stroke:none"
             id="path45" />
        </g>
        <g
           id="g47"
           transform="translate(58.2056,64.1445)"
           style="fill:#2151a8;fill-opacity:1">
          <path
             d="m 0,0 c -0.173,-0.032 -0.4,-0.087 -0.683,-0.165 -0.282,-0.077 -0.596,-0.118 -0.941,-0.118 -0.706,0 -1.244,0.177 -1.612,0.531 C -3.605,0.6 -3.79,1.231 -3.79,2.141 v 8.921 h -1.718 v 1.178 h 1.718 v 3.388 h 1.412 V 12.24 h 2.284 V 11.062 H -2.378 V 2.707 c 0,-0.299 0.009,-0.558 0.024,-0.777 0.016,-0.221 0.062,-0.401 0.141,-0.542 0.079,-0.14 0.2,-0.242 0.365,-0.305 0.165,-0.063 0.396,-0.096 0.695,-0.096 0.188,0 0.38,0.017 0.576,0.048 0.196,0.03 0.389,0.071 0.577,0.117 z"
             style="fill:#2151a8;fill-opacity:1;fill-rule:nonzero;stroke:none"
             id="path49" />
        </g>
        <g
           id="g51"
           transform="translate(69.291,71.1348)"
           style="fill:#2151a8;fill-opacity:1">
          <path
             d="m 0,0 c 0,0.596 -0.082,1.157 -0.247,1.683 -0.165,0.525 -0.408,0.981 -0.729,1.365 -0.322,0.385 -0.726,0.691 -1.212,0.917 -0.487,0.228 -1.044,0.342 -1.671,0.342 -0.628,0 -1.182,-0.118 -1.66,-0.352 C -5.998,3.719 -6.405,3.405 -6.743,3.013 -7.08,2.62 -7.352,2.165 -7.555,1.648 -7.76,1.129 -7.893,0.581 -7.956,0 Z m -7.956,-1.177 c 0,-0.659 0.087,-1.283 0.259,-1.871 0.174,-0.589 0.428,-1.098 0.766,-1.529 0.337,-0.433 0.764,-0.777 1.282,-1.036 0.519,-0.259 1.114,-0.39 1.79,-0.39 0.925,0 1.717,0.244 2.376,0.732 0.66,0.485 1.099,1.175 1.318,2.07 H 1.413 C 1.24,-3.781 1.012,-4.318 0.73,-4.813 0.447,-5.308 0.095,-5.739 -0.329,-6.108 c -0.423,-0.369 -0.926,-0.656 -1.506,-0.859 -0.581,-0.204 -1.256,-0.306 -2.024,-0.306 -0.974,0 -1.813,0.164 -2.519,0.494 -0.706,0.331 -1.287,0.78 -1.742,1.353 -0.456,0.572 -0.792,1.248 -1.012,2.026 -0.22,0.775 -0.329,1.611 -0.329,2.505 0,0.895 0.129,1.735 0.388,2.52 0.259,0.784 0.628,1.47 1.105,2.059 0.479,0.588 1.064,1.05 1.755,1.388 0.69,0.338 1.474,0.507 2.354,0.507 1.678,0 2.997,-0.578 3.954,-1.73 C 1.052,2.695 1.522,1.02 1.507,-1.177 Z"
             style="fill:#2151a8;fill-opacity:1;fill-rule:nonzero;stroke:none"
             id="path53" />
        </g>
        <g
           id="g55"
           transform="translate(82.1899,72.5469)"
           style="fill:#2151a8;fill-opacity:1">
          <path
             d="M 0,0 C -0.251,0.91 -0.683,1.62 -1.294,2.13 -1.907,2.64 -2.683,2.895 -3.625,2.895 -4.347,2.895 -4.967,2.746 -5.484,2.448 -6.002,2.15 -6.426,1.753 -6.755,1.259 -7.085,0.765 -7.328,0.208 -7.484,-0.412 -7.642,-1.032 -7.72,-1.655 -7.72,-2.283 c 0,-0.643 0.074,-1.272 0.223,-1.883 0.149,-0.611 0.389,-1.161 0.718,-1.647 0.329,-0.487 0.754,-0.875 1.271,-1.166 0.518,-0.291 1.146,-0.436 1.883,-0.436 1.052,0 1.895,0.291 2.53,0.872 0.636,0.58 1.04,1.381 1.213,2.4 h 1.506 c -0.126,-0.673 -0.326,-1.29 -0.6,-1.846 -0.275,-0.559 -0.628,-1.036 -1.059,-1.437 -0.432,-0.399 -0.946,-0.711 -1.542,-0.93 -0.596,-0.22 -1.279,-0.33 -2.048,-0.33 -0.973,0 -1.813,0.165 -2.518,0.495 -0.707,0.331 -1.287,0.78 -1.742,1.353 -0.455,0.572 -0.793,1.252 -1.012,2.036 -0.22,0.785 -0.33,1.624 -0.33,2.519 0,0.847 0.122,1.66 0.365,2.436 0.243,0.777 0.6,1.464 1.071,2.059 0.471,0.597 1.055,1.071 1.753,1.424 0.699,0.354 1.503,0.531 2.413,0.531 1.412,0 2.554,-0.338 3.425,-1.013 C 0.67,2.479 1.216,1.428 1.436,0 Z"
             style="fill:#2151a8;fill-opacity:1;fill-rule:nonzero;stroke:none"
             id="path57" />
        </g>
        <g
           id="g59"
           transform="translate(90.9219,64.1445)"
           style="fill:#2151a8;fill-opacity:1">
          <path
             d="m 0,0 c -0.173,-0.032 -0.399,-0.087 -0.682,-0.165 -0.283,-0.077 -0.597,-0.118 -0.942,-0.118 -0.707,0 -1.244,0.177 -1.612,0.531 -0.369,0.352 -0.553,0.983 -0.553,1.893 v 8.921 h -1.718 v 1.178 h 1.718 v 3.388 h 1.412 V 12.24 h 2.283 V 11.062 H -2.377 V 2.707 c 0,-0.299 0.008,-0.558 0.023,-0.777 0.016,-0.221 0.063,-0.401 0.141,-0.542 0.079,-0.14 0.201,-0.242 0.365,-0.305 0.165,-0.063 0.396,-0.096 0.695,-0.096 0.188,0 0.38,0.017 0.577,0.048 0.195,0.03 0.388,0.071 0.576,0.117 z"
             style="fill:#2151a8;fill-opacity:1;fill-rule:nonzero;stroke:none"
             id="path61" />
        </g>
        <g
           id="g63"
           transform="translate(96.7163,71.6504)"
           style="fill:#2151a8;fill-opacity:1">
          <path
             d="m 0,0 v -4.517 h 4.112 c 0.736,0 1.306,0.099 1.716,0.298 0.743,0.369 1.113,1.074 1.113,2.115 0,0.881 -0.358,1.487 -1.079,1.817 C 5.461,-0.104 4.896,-0.008 4.169,0 Z M 0,6.54 V 2.804 h 4.118 c 0.735,0 1.331,0.139 1.791,0.42 0.458,0.279 0.688,0.775 0.688,1.488 0,0.789 -0.303,1.309 -0.91,1.563 C 5.163,6.451 4.496,6.54 3.685,6.54 Z M 9.199,7.677 C 9.716,6.957 9.976,6.095 9.976,5.091 9.976,4.057 9.713,3.226 9.19,2.597 8.898,2.244 8.468,1.923 7.898,1.632 8.763,1.317 9.416,0.819 9.856,0.138 c 0.439,-0.681 0.66,-1.51 0.66,-2.483 0,-1.004 -0.252,-1.903 -0.755,-2.701 C 9.441,-5.574 9.041,-6.02 8.561,-6.378 8.021,-6.793 7.382,-7.076 6.648,-7.229 5.913,-7.382 5.115,-7.46 4.254,-7.46 H -3.379 V 9.481 H 4.808 C 6.874,9.451 8.336,8.849 9.199,7.677"
             style="fill:#2151a8;fill-opacity:1;fill-rule:nonzero;stroke:none"
             id="path65" />
        </g>
        <path
           d="m 110.06,76.719 h 3.321 V 64.191 h -3.321 z m 3.321,1.493 h -3.321 v 3.023 h 3.321 z"
           style="fill:#2151a8;fill-opacity:1;fill-rule:nonzero;stroke:none"
           id="path67" />
        <g
           id="g69"
           transform="translate(115.2651,74.2705)"
           style="fill:#2151a8;fill-opacity:1">
          <path
             d="M 0,0 V 2.333 H 1.747 V 5.827 H 4.988 V 2.333 H 7.022 V 0 H 4.988 v -6.62 c 0,-0.514 0.066,-0.834 0.196,-0.959 0.13,-0.127 0.528,-0.191 1.195,-0.191 0.1,0 0.205,0.003 0.316,0.007 0.111,0.004 0.22,0.009 0.327,0.018 v -2.448 l -1.551,-0.059 c -1.547,-0.053 -2.605,0.215 -3.172,0.804 -0.368,0.377 -0.552,0.956 -0.552,1.736 V 0 Z"
             style="fill:#2151a8;fill-opacity:1;fill-rule:nonzero;stroke:none"
             id="path71" />
        </g>
        <g
           id="g73"
           transform="translate(126.9307,68.1904)"
           style="fill:#2151a8;fill-opacity:1">
          <path
             d="m 0,0 c 0.069,-0.583 0.219,-0.995 0.45,-1.241 0.409,-0.438 1.163,-0.655 2.264,-0.655 0.646,0 1.16,0.096 1.542,0.288 0.381,0.191 0.57,0.478 0.57,0.861 0,0.368 -0.152,0.648 -0.46,0.84 -0.306,0.191 -1.448,0.52 -3.427,0.988 -1.421,0.352 -2.425,0.793 -3.007,1.32 -0.583,0.522 -0.874,1.274 -0.874,2.253 0,1.158 0.455,2.152 1.365,2.983 0.91,0.832 2.19,1.247 3.841,1.247 1.566,0 2.843,-0.311 3.829,-0.936 C 7.08,7.323 7.646,6.245 7.792,4.712 H 4.517 C 4.47,5.134 4.352,5.467 4.16,5.712 3.798,6.157 3.183,6.378 2.315,6.378 1.601,6.378 1.093,6.268 0.788,6.046 0.484,5.823 0.333,5.563 0.333,5.264 0.333,4.889 0.495,4.616 0.817,4.448 1.14,4.271 2.28,3.969 4.238,3.54 5.542,3.233 6.521,2.771 7.172,2.149 7.815,1.521 8.137,0.736 8.137,-0.206 8.137,-1.448 7.674,-2.462 6.749,-3.246 5.824,-4.032 4.394,-4.425 2.46,-4.425 c -1.974,0 -3.43,0.416 -4.371,1.248 -0.941,0.83 -1.41,1.891 -1.41,3.177 z"
             style="fill:#2151a8;fill-opacity:1;fill-rule:nonzero;stroke:none"
             id="path75" />
        </g>
      </g>
    </g>
  </g>
</svg>
